<?xml version="1.0" encoding="utf-8"?>
<!-- Generator: Adobe Illustrator 26.5.3, SVG Export Plug-In . SVG Version: 6.00 Build 0)  -->
<svg version="1.1" xmlns="http://www.w3.org/2000/svg" xmlns:xlink="http://www.w3.org/1999/xlink" x="0px" y="0px"
	 viewBox="0 0 600 600" style="enable-background:new 0 0 600 600;" xml:space="preserve">
<style type="text/css">
	.st0{fill:none;stroke:#F2F2F3;stroke-width:3;stroke-miterlimit:10;}
	.st1{fill:none;}
	.st2{fill:#FFFFFF;stroke:#F2F2F3;}
	.st3{font-family:'NirmalaUI';}
	.st4{font-size:43px;}
</style>
<g id="BG">
	<rect x="-1.3" y="-1.3" width="602.6" height="602.6"/>
</g>
<g id="Layer_1">
	<g>
		<line class="st0" x1="126.2" y1="384.1" x2="468.4" y2="384.1"/>
		<polyline class="st0" points="156.2,444.9 156.2,459.5 126.2,444.9 468.4,444.9 439.5,459.5 439.5,446.5 		"/>
		<rect x="128.3" y="388.6" class="st1" width="340.2" height="50.6"/>
		<text transform="matrix(1 0 0 1 159.0642 429.8189)" class="st2 st3 st4">Markos Paltser</text>
		<g>
			<path class="st0" d="M156.1,374.1c-12.7-23.2-19.8-49.9-19.8-78.2c0-90.4,73.3-163.7,163.7-163.7S463.7,205.5,463.7,296
				c0,28.3-7.2,55-19.8,78.2h25.6c9.9-22.7,15.5-47.8,15.5-74.1c0-102.1-82.8-184.9-184.9-184.9S115.1,197.9,115.1,300
				c0,26.4,5.5,51.4,15.5,74.1H156.1z"/>
			<path class="st0" d="M345.5,453.3c-14.4,4.2-29.7,6.4-45.5,6.4s-31.1-2.2-45.5-6.4h-58c29.5,20,65.1,31.6,103.5,31.6
				s74-11.7,103.5-31.6H345.5z"/>
		</g>
		<rect x="247.8" y="229.5" class="st0" width="93.4" height="16.1"/>
		<polygon class="st0" points="287.6,308.2 304.7,308.2 300,321.4 291,321.4 		"/>
		<polygon class="st0" points="252.7,249.1 281.6,362.5 295.6,362.5 266.9,249.1 		"/>
		<polygon class="st0" points="324,249.1 295.6,362.5 312.8,362.5 339.6,249.1 		"/>
		<path class="st0" d="M365.1,230.3c0,0,14.4,3.2,20.7,17.4c8.5,19,14.1,55.2-14.8,69.6c0,0-9,8.4-41.1,5.3l3.2-16.9
			c0,0,22.2,0.5,33.2-4.7c11.1-5.3,10.9-50.8-0.9-53.7L365.1,230.3z"/>
		<g>
			<path class="st0" d="M342.7,225.4l-14.3-0.6l8.1-25.7h24.8l-1.2,98.6c-5,1.1-9.3,2.6-14.2,2.9l0.6-83.1L342.7,225.4z"/>
			<path class="st0" d="M345.7,328.8l-0.2,33.8h15.8v-36.1C357.2,327.1,352.1,328.7,345.7,328.8z"/>
		</g>
		<polygon class="st0" points="229,324.7 228.8,326.8 228.8,362.5 244.6,362.5 244.6,326.8 244.6,324.7 		"/>
		<polygon class="st0" points="243.1,300.6 243.1,217.2 247.5,224.6 260.7,224.6 252.6,197.7 229.4,197.7 229.4,300.6 		"/>
		<polygon class="st0" points="220.5,320.5 263,320.5 258.8,307.3 220.5,307.3 220.8,243.7 224.5,243.7 224.5,230.3 205.5,230.3 
			205.5,361.6 220.3,361.6 		"/>
	</g>
</g>
</svg>
